<svg xmlns="http://www.w3.org/2000/svg" xmlns:xlink="http://www.w3.org/1999/xlink" width="150" zoomAndPan="magnify" viewBox="0 0 112.5 37.5" height="50" preserveAspectRatio="xMidYMid meet" version="1.0"><defs><g/><clipPath id="5064792171"><path d="M 5 10 L 25 10 L 25 33.304688 L 5 33.304688 Z M 5 10 " clip-rule="nonzero"/></clipPath><clipPath id="b69713c42e"><path d="M 4.195312 3.699219 L 34 3.699219 L 34 19 L 4.195312 19 Z M 4.195312 3.699219 " clip-rule="nonzero"/></clipPath><clipPath id="985611f5d5"><path d="M 19 26 L 32 26 L 32 33.304688 L 19 33.304688 Z M 19 26 " clip-rule="nonzero"/></clipPath><clipPath id="e394e62a12"><path d="M 32 16 L 35.28125 16 L 35.28125 21 L 32 21 Z M 32 16 " clip-rule="nonzero"/></clipPath><clipPath id="004f08d5e6"><rect x="0" width="74" y="0" height="21"/></clipPath><clipPath id="07daf66d5d"><path d="M 58 0.683594 L 63 0.683594 L 63 9 L 58 9 Z M 58 0.683594 " clip-rule="nonzero"/></clipPath><clipPath id="dbffb5c57b"><rect x="0" width="72" y="0" height="11"/></clipPath></defs><g clip-path="url(#5064792171)"><path fill="#a4d7f4" d="M 24.058594 22.871094 C 23.652344 22.871094 23.28125 22.863281 22.914062 22.871094 C 21.460938 22.910156 20.421875 23.816406 19.972656 24.980469 C 19.699219 25.691406 19.71875 26.527344 19.644531 27.308594 C 19.53125 28.453125 19.472656 29.601562 19.347656 30.742188 C 19.304688 31.117188 19.125 31.480469 19 31.84375 C 18.84375 32.292969 18.683594 32.738281 18.492188 33.28125 L 18.097656 33.28125 C 14.132812 33.28125 10.164062 33.273438 6.199219 33.289062 C 5.769531 33.289062 5.589844 33.171875 5.652344 32.742188 C 5.65625 32.710938 5.65625 32.679688 5.652344 32.644531 C 5.660156 31.765625 5.570312 31.84375 6.46875 31.84375 C 6.660156 31.84375 6.851562 31.84375 7.113281 31.84375 L 7.113281 31.242188 C 7.113281 27.464844 7.117188 23.6875 7.105469 19.910156 C 7.101562 19.464844 7.230469 19.164062 7.585938 18.878906 C 11.085938 16.097656 14.574219 13.308594 18.054688 10.507812 C 18.550781 10.109375 18.960938 10.105469 19.453125 10.496094 C 20.910156 11.65625 22.367188 12.8125 23.8125 13.988281 C 23.953125 14.101562 24.089844 14.320312 24.09375 14.492188 C 24.109375 17.199219 24.105469 19.90625 24.101562 22.613281 C 24.09375 22.699219 24.078125 22.785156 24.058594 22.871094 Z M 24.058594 22.871094 " fill-opacity="1" fill-rule="nonzero"/></g><g clip-path="url(#b69713c42e)"><path fill="#27aae1" d="M 33.117188 15.757812 C 32.90625 16.121094 32.703125 16.488281 32.492188 16.851562 C 32.421875 16.972656 32.367188 17.140625 32.257812 17.207031 C 31.984375 17.367188 31.683594 17.566406 31.386719 17.582031 C 31.144531 17.59375 30.855469 17.40625 30.640625 17.238281 C 29.820312 16.605469 29.027344 15.9375 28.207031 15.300781 C 27.941406 15.09375 27.804688 14.875 27.828125 14.527344 C 27.855469 14.191406 27.832031 13.847656 27.835938 13.507812 C 27.839844 12.699219 27.488281 12.101562 26.753906 11.761719 C 26.003906 11.414062 25.308594 11.550781 24.6875 12.09375 C 24.625 12.144531 24.566406 12.195312 24.476562 12.269531 C 23.75 11.6875 23.035156 11.109375 22.320312 10.535156 C 21.367188 9.761719 20.410156 8.988281 19.453125 8.214844 C 18.757812 7.652344 18.757812 7.652344 18.078125 8.195312 C 13.914062 11.542969 9.753906 14.890625 5.589844 18.234375 C 5.503906 18.308594 5.414062 18.378906 5.320312 18.441406 C 4.804688 18.765625 4.226562 18.488281 4.203125 17.878906 C 4.179688 17.296875 4.191406 16.714844 4.203125 16.132812 C 4.210938 15.65625 4.488281 15.328125 4.839844 15.039062 C 8.585938 11.953125 12.335938 8.863281 16.082031 5.773438 C 16.78125 5.199219 17.472656 4.613281 18.175781 4.042969 C 18.703125 3.617188 18.824219 3.621094 19.351562 4.054688 C 22.5 6.648438 25.648438 9.242188 28.792969 11.835938 C 30.089844 12.910156 31.394531 13.972656 32.683594 15.054688 C 32.921875 15.25 33.09375 15.523438 33.296875 15.761719 Z M 33.117188 15.757812 " fill-opacity="1" fill-rule="nonzero"/></g><g clip-path="url(#985611f5d5)"><path fill="#1c75bc" d="M 23.136719 30.777344 C 22.984375 31.214844 22.835938 31.652344 22.683594 32.085938 C 22.453125 32.753906 22.042969 33.0625 21.351562 33.074219 C 20.828125 33.082031 20.304688 33.074219 19.707031 33.074219 C 19.792969 32.835938 19.816406 32.710938 19.878906 32.605469 C 20.410156 31.699219 20.550781 30.695312 20.617188 29.671875 C 20.683594 28.683594 20.769531 27.699219 20.816406 26.714844 C 20.835938 26.332031 20.992188 26.226562 21.355469 26.226562 C 24.398438 26.230469 27.4375 26.222656 30.480469 26.195312 C 30.9375 26.191406 31.085938 26.328125 31.109375 26.789062 C 31.171875 28.226562 31.269531 29.664062 31.398438 31.097656 C 31.433594 31.492188 31.59375 31.882812 31.742188 32.253906 C 31.964844 32.824219 31.820312 33.070312 31.191406 33.074219 C 29.476562 33.078125 27.761719 33.074219 26.046875 33.074219 C 25.304688 33.074219 24.558594 33.058594 23.816406 33.082031 C 23.425781 33.09375 23.304688 32.941406 23.316406 32.574219 C 23.335938 31.980469 23.320312 31.390625 23.320312 30.800781 Z M 23.136719 30.777344 " fill-opacity="1" fill-rule="nonzero"/></g><path fill="#27aae1" d="M 26.726562 23.984375 C 27.382812 23.984375 27.976562 24.003906 28.570312 23.980469 C 29.644531 23.933594 30.359375 24.476562 30.933594 25.390625 L 21.078125 25.390625 C 21.304688 24.59375 22.105469 24.003906 23.039062 23.984375 C 23.746094 23.972656 24.453125 23.984375 25.222656 23.984375 L 25.222656 23.363281 C 25.222656 20.171875 25.222656 16.980469 25.222656 13.792969 C 25.21875 13.644531 25.226562 13.5 25.246094 13.355469 C 25.316406 12.949219 25.578125 12.730469 25.976562 12.703125 C 26.34375 12.683594 26.667969 13.003906 26.71875 13.402344 C 26.730469 13.53125 26.730469 13.660156 26.726562 13.792969 C 26.726562 16.964844 26.726562 20.140625 26.726562 23.316406 Z M 26.726562 23.984375 " fill-opacity="1" fill-rule="nonzero"/><path fill="#1c75bc" d="M 28.960938 10.84375 L 25.320312 7.832031 C 25.316406 7.304688 25.304688 6.78125 25.320312 6.253906 C 25.324219 6.214844 25.542969 6.152344 25.664062 6.152344 C 26.601562 6.144531 27.539062 6.152344 28.476562 6.144531 C 28.785156 6.144531 28.964844 6.25 28.964844 6.59375 C 28.960938 7.964844 28.960938 9.335938 28.960938 10.84375 Z M 28.960938 10.84375 " fill-opacity="1" fill-rule="nonzero"/><path fill="#1c75bc" d="M 32.074219 20.625 C 30.710938 20.960938 29.925781 21.714844 29.597656 23.089844 C 29.261719 21.746094 28.507812 20.960938 27.128906 20.632812 C 28.5 20.292969 29.265625 19.535156 29.585938 18.144531 C 29.929688 19.523438 30.675781 20.3125 32.074219 20.625 Z M 32.074219 20.625 " fill-opacity="1" fill-rule="nonzero"/><g clip-path="url(#e394e62a12)"><path fill="#1c75bc" d="M 33.667969 16.914062 C 33.914062 17.824219 34.433594 18.308594 35.273438 18.550781 C 34.445312 18.8125 33.898438 19.285156 33.671875 20.207031 C 33.40625 19.304688 32.910156 18.777344 32.003906 18.558594 C 32.890625 18.324219 33.402344 17.828125 33.667969 16.914062 Z M 33.667969 16.914062 " fill-opacity="1" fill-rule="nonzero"/></g><path fill="#1c75bc" d="M 30.984375 23.792969 C 31.902344 23.554688 32.390625 23.039062 32.632812 22.152344 C 32.882812 23.015625 33.355469 23.546875 34.273438 23.792969 C 33.375 24.050781 32.878906 24.570312 32.628906 25.429688 C 32.398438 24.546875 31.890625 24.058594 30.984375 23.792969 Z M 30.984375 23.792969 " fill-opacity="1" fill-rule="nonzero"/><g transform="matrix(1, 0, 0, 1, 35, 3)"><g clip-path="url(#004f08d5e6)"><g fill="#1c75bc" fill-opacity="1"><g transform="translate(0.522748, 16.410748)"><g><path d="M 6.34375 0.171875 C 5.695312 0.171875 5.050781 0.09375 4.40625 -0.0625 C 3.769531 -0.226562 3.1875 -0.476562 2.65625 -0.8125 C 2.125 -1.144531 1.6875 -1.5625 1.34375 -2.0625 C 1 -2.570312 0.800781 -3.164062 0.75 -3.84375 L 4.203125 -3.84375 C 4.265625 -3.550781 4.390625 -3.296875 4.578125 -3.078125 C 4.765625 -2.867188 5.003906 -2.707031 5.296875 -2.59375 C 5.597656 -2.488281 5.941406 -2.4375 6.328125 -2.4375 C 6.679688 -2.4375 7.015625 -2.46875 7.328125 -2.53125 C 7.640625 -2.601562 7.890625 -2.722656 8.078125 -2.890625 C 8.273438 -3.054688 8.375 -3.285156 8.375 -3.578125 C 8.375 -3.835938 8.269531 -4.035156 8.0625 -4.171875 C 7.863281 -4.316406 7.601562 -4.425781 7.28125 -4.5 C 6.96875 -4.570312 6.640625 -4.640625 6.296875 -4.703125 L 4.359375 -5.03125 C 3.390625 -5.1875 2.609375 -5.578125 2.015625 -6.203125 C 1.429688 -6.835938 1.125 -7.691406 1.09375 -8.765625 C 1.082031 -9.609375 1.3125 -10.332031 1.78125 -10.9375 C 2.25 -11.539062 2.878906 -12 3.671875 -12.3125 C 4.460938 -12.632812 5.335938 -12.796875 6.296875 -12.796875 C 7.453125 -12.796875 8.425781 -12.625 9.21875 -12.28125 C 10.019531 -11.945312 10.628906 -11.476562 11.046875 -10.875 C 11.460938 -10.28125 11.679688 -9.59375 11.703125 -8.8125 L 8.328125 -8.8125 C 8.285156 -9.132812 8.179688 -9.394531 8.015625 -9.59375 C 7.859375 -9.800781 7.640625 -9.945312 7.359375 -10.03125 C 7.085938 -10.125 6.753906 -10.171875 6.359375 -10.171875 C 6.035156 -10.171875 5.765625 -10.140625 5.546875 -10.078125 C 5.328125 -10.023438 5.148438 -9.945312 5.015625 -9.84375 C 4.890625 -9.75 4.800781 -9.644531 4.75 -9.53125 C 4.695312 -9.414062 4.671875 -9.296875 4.671875 -9.171875 C 4.671875 -8.890625 4.757812 -8.660156 4.9375 -8.484375 C 5.113281 -8.304688 5.472656 -8.171875 6.015625 -8.078125 L 7.96875 -7.75 C 8.863281 -7.59375 9.566406 -7.347656 10.078125 -7.015625 C 10.597656 -6.679688 10.976562 -6.304688 11.21875 -5.890625 C 11.457031 -5.484375 11.609375 -5.078125 11.671875 -4.671875 C 11.742188 -4.265625 11.78125 -3.898438 11.78125 -3.578125 C 11.78125 -2.867188 11.539062 -2.226562 11.0625 -1.65625 C 10.582031 -1.082031 9.9375 -0.632812 9.125 -0.3125 C 8.3125 0.0078125 7.382812 0.171875 6.34375 0.171875 Z M 6.34375 0.171875 "/></g></g></g><g fill="#1c75bc" fill-opacity="1"><g transform="translate(11.922904, 16.410748)"><g><path d="M 0.265625 0 L 4.734375 -12.640625 L 8.21875 -12.640625 L 12.6875 0 L 9.34375 0 L 8.5 -2.453125 L 4.515625 -2.453125 L 3.65625 0 Z M 5.234375 -5.34375 L 7.734375 -5.34375 L 6.484375 -9.390625 Z M 5.234375 -5.34375 "/></g></g></g><g fill="#1c75bc" fill-opacity="1"><g transform="translate(24.005048, 16.410748)"><g><path d="M 9.53125 -12.640625 L 12.9375 -12.640625 L 12.9375 0 L 9.875 0 L 4.578125 -7.53125 L 4.578125 0 L 1.1875 0 L 1.1875 -12.640625 L 4.609375 -12.640625 L 9.53125 -5.59375 Z M 9.53125 -12.640625 "/></g></g></g><g fill="#1c75bc" fill-opacity="1"><g transform="translate(37.249977, 16.410748)"><g><path d="M 0.265625 -9.65625 L 0.265625 -12.640625 L 10.875 -12.640625 L 10.875 -9.65625 L 7.25 -9.65625 L 7.25 0 L 3.84375 0 L 3.84375 -9.65625 Z M 0.265625 -9.65625 "/></g></g></g><g fill="#1c75bc" fill-opacity="1"><g transform="translate(47.513637, 16.410748)"><g><path d="M 6.875 0.171875 C 5.625 0.171875 4.539062 -0.09375 3.625 -0.625 C 2.707031 -1.15625 2 -1.90625 1.5 -2.875 C 1 -3.84375 0.75 -4.984375 0.75 -6.296875 C 0.75 -7.609375 1 -8.753906 1.5 -9.734375 C 2.007812 -10.710938 2.722656 -11.46875 3.640625 -12 C 4.566406 -12.539062 5.644531 -12.8125 6.875 -12.8125 C 8.101562 -12.8125 9.171875 -12.539062 10.078125 -12 C 10.992188 -11.46875 11.707031 -10.710938 12.21875 -9.734375 C 12.726562 -8.753906 12.984375 -7.609375 12.984375 -6.296875 C 12.984375 -4.992188 12.734375 -3.851562 12.234375 -2.875 C 11.734375 -1.90625 11.023438 -1.15625 10.109375 -0.625 C 9.191406 -0.09375 8.113281 0.171875 6.875 0.171875 Z M 6.875 -2.546875 C 7.34375 -2.546875 7.757812 -2.664062 8.125 -2.90625 C 8.488281 -3.144531 8.773438 -3.53125 8.984375 -4.0625 C 9.191406 -4.601562 9.296875 -5.328125 9.296875 -6.234375 C 9.296875 -7.179688 9.191406 -7.9375 8.984375 -8.5 C 8.773438 -9.0625 8.488281 -9.46875 8.125 -9.71875 C 7.757812 -9.96875 7.34375 -10.09375 6.875 -10.09375 C 6.414062 -10.09375 6.003906 -9.96875 5.640625 -9.71875 C 5.273438 -9.46875 4.984375 -9.0625 4.765625 -8.5 C 4.554688 -7.9375 4.453125 -7.179688 4.453125 -6.234375 C 4.453125 -5.328125 4.554688 -4.601562 4.765625 -4.0625 C 4.984375 -3.53125 5.273438 -3.144531 5.640625 -2.90625 C 6.003906 -2.664062 6.414062 -2.546875 6.875 -2.546875 Z M 6.875 -2.546875 "/></g></g></g><g fill="#1c75bc" fill-opacity="1"><g transform="translate(60.540049, 16.410748)"><g><path d="M 6.34375 0.171875 C 5.695312 0.171875 5.050781 0.09375 4.40625 -0.0625 C 3.769531 -0.226562 3.1875 -0.476562 2.65625 -0.8125 C 2.125 -1.144531 1.6875 -1.5625 1.34375 -2.0625 C 1 -2.570312 0.800781 -3.164062 0.75 -3.84375 L 4.203125 -3.84375 C 4.265625 -3.550781 4.390625 -3.296875 4.578125 -3.078125 C 4.765625 -2.867188 5.003906 -2.707031 5.296875 -2.59375 C 5.597656 -2.488281 5.941406 -2.4375 6.328125 -2.4375 C 6.679688 -2.4375 7.015625 -2.46875 7.328125 -2.53125 C 7.640625 -2.601562 7.890625 -2.722656 8.078125 -2.890625 C 8.273438 -3.054688 8.375 -3.285156 8.375 -3.578125 C 8.375 -3.835938 8.269531 -4.035156 8.0625 -4.171875 C 7.863281 -4.316406 7.601562 -4.425781 7.28125 -4.5 C 6.96875 -4.570312 6.640625 -4.640625 6.296875 -4.703125 L 4.359375 -5.03125 C 3.390625 -5.1875 2.609375 -5.578125 2.015625 -6.203125 C 1.429688 -6.835938 1.125 -7.691406 1.09375 -8.765625 C 1.082031 -9.609375 1.3125 -10.332031 1.78125 -10.9375 C 2.25 -11.539062 2.878906 -12 3.671875 -12.3125 C 4.460938 -12.632812 5.335938 -12.796875 6.296875 -12.796875 C 7.453125 -12.796875 8.425781 -12.625 9.21875 -12.28125 C 10.019531 -11.945312 10.628906 -11.476562 11.046875 -10.875 C 11.460938 -10.28125 11.679688 -9.59375 11.703125 -8.8125 L 8.328125 -8.8125 C 8.285156 -9.132812 8.179688 -9.394531 8.015625 -9.59375 C 7.859375 -9.800781 7.640625 -9.945312 7.359375 -10.03125 C 7.085938 -10.125 6.753906 -10.171875 6.359375 -10.171875 C 6.035156 -10.171875 5.765625 -10.140625 5.546875 -10.078125 C 5.328125 -10.023438 5.148438 -9.945312 5.015625 -9.84375 C 4.890625 -9.75 4.800781 -9.644531 4.75 -9.53125 C 4.695312 -9.414062 4.671875 -9.296875 4.671875 -9.171875 C 4.671875 -8.890625 4.757812 -8.660156 4.9375 -8.484375 C 5.113281 -8.304688 5.472656 -8.171875 6.015625 -8.078125 L 7.96875 -7.75 C 8.863281 -7.59375 9.566406 -7.347656 10.078125 -7.015625 C 10.597656 -6.679688 10.976562 -6.304688 11.21875 -5.890625 C 11.457031 -5.484375 11.609375 -5.078125 11.671875 -4.671875 C 11.742188 -4.265625 11.78125 -3.898438 11.78125 -3.578125 C 11.78125 -2.867188 11.539062 -2.226562 11.0625 -1.65625 C 10.582031 -1.082031 9.9375 -0.632812 9.125 -0.3125 C 8.3125 0.0078125 7.382812 0.171875 6.34375 0.171875 Z M 6.34375 0.171875 "/></g></g></g></g></g><g transform="matrix(1, 0, 0, 1, 37, 23)"><g clip-path="url(#dbffb5c57b)"><g fill="#a4d7f4" fill-opacity="1"><g transform="translate(0.616346, 8.045602)"><g><path d="M 0.796875 0 L 0.796875 -5.765625 L 1.421875 -5.765625 L 1.421875 -3.28125 L 4.6875 -3.28125 L 4.6875 -5.765625 L 5.3125 -5.765625 L 5.3125 0 L 4.6875 0 L 4.6875 -2.703125 L 1.421875 -2.703125 L 1.421875 0 Z M 0.796875 0 "/></g></g></g><g fill="#a4d7f4" fill-opacity="1"><g transform="translate(7.907912, 8.045602)"><g><path d="M 0.796875 0 L 0.796875 -5.765625 L 1.421875 -5.765625 L 1.421875 0 Z M 0.796875 0 "/></g></g></g><g fill="#a4d7f4" fill-opacity="1"><g transform="translate(11.302391, 8.045602)"><g><path d="M 2.859375 0.078125 C 2.359375 0.078125 1.925781 -0.0351562 1.5625 -0.265625 C 1.195312 -0.492188 0.914062 -0.828125 0.71875 -1.265625 C 0.53125 -1.703125 0.4375 -2.238281 0.4375 -2.875 C 0.4375 -3.507812 0.535156 -4.046875 0.734375 -4.484375 C 0.929688 -4.929688 1.210938 -5.269531 1.578125 -5.5 C 1.941406 -5.738281 2.375 -5.859375 2.875 -5.859375 C 3.15625 -5.859375 3.414062 -5.804688 3.65625 -5.703125 C 3.90625 -5.609375 4.128906 -5.472656 4.328125 -5.296875 C 4.523438 -5.128906 4.679688 -4.9375 4.796875 -4.71875 C 4.910156 -4.5 4.976562 -4.269531 5 -4.03125 L 4.328125 -4.03125 C 4.285156 -4.25 4.195312 -4.453125 4.0625 -4.640625 C 3.9375 -4.835938 3.769531 -4.992188 3.5625 -5.109375 C 3.351562 -5.222656 3.125 -5.28125 2.875 -5.28125 C 2.519531 -5.28125 2.207031 -5.191406 1.9375 -5.015625 C 1.675781 -4.847656 1.472656 -4.585938 1.328125 -4.234375 C 1.179688 -3.878906 1.109375 -3.429688 1.109375 -2.890625 C 1.109375 -2.460938 1.148438 -2.097656 1.234375 -1.796875 C 1.328125 -1.492188 1.453125 -1.242188 1.609375 -1.046875 C 1.765625 -0.859375 1.953125 -0.71875 2.171875 -0.625 C 2.390625 -0.53125 2.628906 -0.484375 2.890625 -0.484375 C 3.148438 -0.484375 3.375 -0.53125 3.5625 -0.625 C 3.75 -0.71875 3.90625 -0.835938 4.03125 -0.984375 C 4.164062 -1.128906 4.265625 -1.285156 4.328125 -1.453125 C 4.398438 -1.628906 4.4375 -1.789062 4.4375 -1.9375 L 4.453125 -2.5 L 3 -2.5 L 3 -2.96875 L 5.09375 -2.96875 L 5.09375 0 L 4.609375 0 L 4.609375 -0.921875 C 4.503906 -0.742188 4.375 -0.578125 4.21875 -0.421875 C 4.0625 -0.273438 3.867188 -0.15625 3.640625 -0.0625 C 3.421875 0.03125 3.160156 0.078125 2.859375 0.078125 Z M 2.859375 0.078125 "/></g></g></g><g fill="#a4d7f4" fill-opacity="1"><g transform="translate(18.282829, 8.045602)"><g><path d="M 0.796875 0 L 0.796875 -5.765625 L 1.421875 -5.765625 L 1.421875 0 Z M 0.796875 0 "/></g></g></g><g fill="#a4d7f4" fill-opacity="1"><g transform="translate(21.677308, 8.045602)"><g><path d="M 0.796875 0 L 0.796875 -5.765625 L 4.34375 -5.765625 L 4.34375 -5.21875 L 1.421875 -5.21875 L 1.421875 -3.1875 L 4.078125 -3.1875 L 4.078125 -2.640625 L 1.421875 -2.640625 L 1.421875 -0.578125 L 4.4375 -0.578125 L 4.4375 0 Z M 0.796875 0 "/></g></g></g><g fill="#a4d7f4" fill-opacity="1"><g transform="translate(27.848008, 8.045602)"><g><path d="M 0.796875 0 L 0.796875 -5.765625 L 1.375 -5.765625 L 4.546875 -1.109375 L 4.546875 -5.765625 L 5.171875 -5.765625 L 5.171875 0 L 4.609375 0 L 1.421875 -4.703125 L 1.421875 0 Z M 0.796875 0 "/></g></g></g><g fill="#a4d7f4" fill-opacity="1"><g transform="translate(34.991987, 8.045602)"><g><path d="M 0.796875 0 L 0.796875 -5.765625 L 1.421875 -5.765625 L 1.421875 0 Z M 0.796875 0 "/></g></g></g><g fill="#a4d7f4" fill-opacity="1"><g transform="translate(38.386467, 8.045602)"><g><path d="M 0.53125 0 L 0.53125 -0.359375 L 3.75 -5.21875 L 0.640625 -5.21875 L 0.640625 -5.765625 L 4.609375 -5.765625 L 4.609375 -5.421875 L 1.375 -0.5625 L 4.609375 -0.5625 L 4.609375 0 Z M 0.53125 0 "/></g></g></g><g fill="#a4d7f4" fill-opacity="1"><g transform="translate(44.605036, 8.045602)"><g><path d="M 0.359375 0 L 2.453125 -5.765625 L 3.1875 -5.765625 L 5.28125 0 L 4.640625 0 L 4.046875 -1.640625 L 1.59375 -1.640625 L 1 0 Z M 1.765625 -2.234375 L 3.859375 -2.234375 L 2.8125 -5.15625 Z M 1.765625 -2.234375 "/></g></g></g><g fill="#a4d7f4" fill-opacity="1"><g transform="translate(51.146703, 8.045602)"><g><path d="M 2.734375 1.625 C 2.585938 1.625 2.457031 1.609375 2.34375 1.578125 C 2.226562 1.546875 2.117188 1.5 2.015625 1.4375 L 2.125 1.140625 C 2.1875 1.191406 2.257812 1.234375 2.34375 1.265625 C 2.425781 1.304688 2.53125 1.328125 2.65625 1.328125 C 2.800781 1.328125 2.910156 1.300781 2.984375 1.25 C 3.054688 1.195312 3.09375 1.125 3.09375 1.03125 C 3.09375 0.90625 3.039062 0.8125 2.9375 0.75 C 2.84375 0.695312 2.6875 0.671875 2.46875 0.671875 C 2.445312 0.671875 2.429688 0.664062 2.421875 0.65625 C 2.410156 0.644531 2.410156 0.632812 2.421875 0.625 L 2.703125 -0.046875 L 3.0625 -0.046875 L 2.875 0.4375 C 3.050781 0.445312 3.1875 0.484375 3.28125 0.546875 C 3.382812 0.609375 3.457031 0.679688 3.5 0.765625 C 3.539062 0.847656 3.5625 0.929688 3.5625 1.015625 C 3.5625 1.148438 3.519531 1.257812 3.4375 1.34375 C 3.363281 1.4375 3.265625 1.503906 3.140625 1.546875 C 3.015625 1.597656 2.878906 1.625 2.734375 1.625 Z M 2.859375 0.078125 C 2.335938 0.078125 1.898438 -0.0351562 1.546875 -0.265625 C 1.191406 -0.503906 0.914062 -0.84375 0.71875 -1.28125 C 0.53125 -1.726562 0.4375 -2.265625 0.4375 -2.890625 C 0.4375 -3.523438 0.53125 -4.0625 0.71875 -4.5 C 0.90625 -4.945312 1.175781 -5.285156 1.53125 -5.515625 C 1.894531 -5.742188 2.335938 -5.859375 2.859375 -5.859375 C 3.253906 -5.859375 3.601562 -5.769531 3.90625 -5.59375 C 4.21875 -5.425781 4.46875 -5.203125 4.65625 -4.921875 C 4.84375 -4.648438 4.953125 -4.351562 4.984375 -4.03125 L 4.3125 -4.03125 C 4.269531 -4.257812 4.1875 -4.46875 4.0625 -4.65625 C 3.9375 -4.851562 3.769531 -5.007812 3.5625 -5.125 C 3.363281 -5.238281 3.125 -5.296875 2.84375 -5.296875 C 2.46875 -5.296875 2.148438 -5.207031 1.890625 -5.03125 C 1.640625 -4.863281 1.453125 -4.601562 1.328125 -4.25 C 1.203125 -3.894531 1.140625 -3.441406 1.140625 -2.890625 C 1.140625 -2.066406 1.28125 -1.457031 1.5625 -1.0625 C 1.851562 -0.675781 2.28125 -0.484375 2.84375 -0.484375 C 3.125 -0.484375 3.363281 -0.539062 3.5625 -0.65625 C 3.769531 -0.769531 3.9375 -0.925781 4.0625 -1.125 C 4.1875 -1.320312 4.269531 -1.535156 4.3125 -1.765625 L 4.984375 -1.765625 C 4.960938 -1.523438 4.898438 -1.296875 4.796875 -1.078125 C 4.691406 -0.859375 4.550781 -0.660156 4.375 -0.484375 C 4.195312 -0.304688 3.976562 -0.164062 3.71875 -0.0625 C 3.46875 0.03125 3.179688 0.078125 2.859375 0.078125 Z M 2.859375 0.078125 "/></g></g></g><g clip-path="url(#07daf66d5d)"><g fill="#a4d7f4" fill-opacity="1"><g transform="translate(57.676401, 8.045602)"><g><path d="M 0.359375 0 L 2.453125 -5.765625 L 3.1875 -5.765625 L 5.28125 0 L 4.640625 0 L 4.046875 -1.640625 L 1.59375 -1.640625 L 1 0 Z M 1.765625 -2.234375 L 3.859375 -2.234375 L 2.8125 -5.15625 Z M 1.796875 -6.53125 L 1.671875 -6.9375 C 1.753906 -7.007812 1.84375 -7.070312 1.9375 -7.125 C 2.039062 -7.175781 2.164062 -7.203125 2.3125 -7.203125 C 2.4375 -7.203125 2.550781 -7.1875 2.65625 -7.15625 C 2.769531 -7.125 2.878906 -7.085938 2.984375 -7.046875 C 3.085938 -7.015625 3.203125 -7 3.328125 -7 C 3.441406 -7 3.535156 -7.015625 3.609375 -7.046875 C 3.691406 -7.085938 3.773438 -7.140625 3.859375 -7.203125 L 3.984375 -6.765625 C 3.910156 -6.722656 3.820312 -6.675781 3.71875 -6.625 C 3.613281 -6.582031 3.476562 -6.5625 3.3125 -6.5625 C 3.175781 -6.5625 3.054688 -6.578125 2.953125 -6.609375 C 2.847656 -6.640625 2.75 -6.671875 2.65625 -6.703125 C 2.5625 -6.734375 2.457031 -6.75 2.34375 -6.75 C 2.207031 -6.75 2.097656 -6.726562 2.015625 -6.6875 C 1.941406 -6.644531 1.867188 -6.59375 1.796875 -6.53125 Z M 1.796875 -6.53125 "/></g></g></g></g><g fill="#a4d7f4" fill-opacity="1"><g transform="translate(64.218068, 8.045602)"><g><path d="M 2.90625 0.078125 C 2.40625 0.078125 1.96875 -0.0351562 1.59375 -0.265625 C 1.226562 -0.492188 0.941406 -0.828125 0.734375 -1.265625 C 0.535156 -1.703125 0.4375 -2.238281 0.4375 -2.875 C 0.4375 -3.507812 0.535156 -4.046875 0.734375 -4.484375 C 0.941406 -4.929688 1.226562 -5.269531 1.59375 -5.5 C 1.96875 -5.738281 2.40625 -5.859375 2.90625 -5.859375 C 3.414062 -5.859375 3.851562 -5.738281 4.21875 -5.5 C 4.582031 -5.269531 4.863281 -4.929688 5.0625 -4.484375 C 5.257812 -4.046875 5.359375 -3.507812 5.359375 -2.875 C 5.359375 -2.238281 5.257812 -1.703125 5.0625 -1.265625 C 4.863281 -0.828125 4.582031 -0.492188 4.21875 -0.265625 C 3.851562 -0.0351562 3.414062 0.078125 2.90625 0.078125 Z M 2.90625 -0.484375 C 3.289062 -0.484375 3.613281 -0.566406 3.875 -0.734375 C 4.132812 -0.898438 4.332031 -1.160156 4.46875 -1.515625 C 4.601562 -1.867188 4.671875 -2.320312 4.671875 -2.875 C 4.671875 -3.425781 4.597656 -3.878906 4.453125 -4.234375 C 4.316406 -4.597656 4.117188 -4.863281 3.859375 -5.03125 C 3.597656 -5.207031 3.28125 -5.296875 2.90625 -5.296875 C 2.53125 -5.296875 2.210938 -5.207031 1.953125 -5.03125 C 1.691406 -4.851562 1.488281 -4.582031 1.34375 -4.21875 C 1.207031 -3.863281 1.140625 -3.414062 1.140625 -2.875 C 1.140625 -2.320312 1.207031 -1.867188 1.34375 -1.515625 C 1.488281 -1.160156 1.691406 -0.898438 1.953125 -0.734375 C 2.210938 -0.566406 2.53125 -0.484375 2.90625 -0.484375 Z M 2.90625 -0.484375 "/></g></g></g></g></g></svg>